<svg width="512" height="512" viewBox="0 0 512 512" fill="none" xmlns="http://www.w3.org/2000/svg">
  <!-- Black background -->
  <rect width="512" height="512" fill="#000000"/>
  
  <!-- White circular outline -->
  <circle cx="256" cy="200" r="80" fill="none" stroke="#FFFFFF" stroke-width="8"/>
  
  <!-- Handshake icon inside circle -->
  <!-- Left hand -->
  <path d="M200 180 C200 180, 190 170, 190 180 C190 190, 200 200, 200 200 C200 200, 210 190, 210 180 C210 170, 200 180, 200 180 Z" fill="#FFFFFF"/>
  <path d="M200 180 C200 180, 195 175, 195 180 C195 185, 200 190, 200 190 C200 190, 205 185, 205 180 C205 175, 200 180, 200 180 Z" fill="#FFFFFF"/>
  
  <!-- Right hand -->
  <path d="M312 180 C312 180, 322 170, 322 180 C322 190, 312 200, 312 200 C312 200, 302 190, 302 180 C302 170, 312 180, 312 180 Z" fill="#FFFFFF"/>
  <path d="M312 180 C312 180, 317 175, 317 180 C317 185, 312 190, 312 190 C312 190, 307 185, 307 180 C307 175, 312 180, 312 180 Z" fill="#FFFFFF"/>
  
  <!-- Clasped hands in center -->
  <path d="M256 190 C256 190, 240 185, 240 195 C240 205, 256 210, 256 210 C256 210, 272 205, 272 195 C272 185, 256 190, 256 190 Z" fill="#FFFFFF"/>
  
  <!-- CMA text -->
  <text x="256" y="350" font-family="Arial, sans-serif" font-size="48" font-weight="bold" text-anchor="middle" fill="#FFFFFF">CMA</text>
  
  <!-- Meet text -->
  <text x="256" y="400" font-family="Arial, sans-serif" font-size="48" font-weight="bold" text-anchor="middle" fill="#FFFFFF">MEET</text>
</svg>